<?xml version="1.0" encoding="UTF-8"?>
<svg id="Layer_1" xmlns="http://www.w3.org/2000/svg" viewBox="0 0 16 16">
  <defs>
    <style>
      .cls-1 {
        fill: none;
        stroke: #ff5b00;
        stroke-linecap: round;
        stroke-linejoin: round;
      }
    </style>
  </defs>
  <path class="cls-1" d="M8.73,9.03c-.84.14-1.42.8-1.43,1.47-.01.81.81,1.37,1.43,1.47,1.27.21,2.88-1.32,2.86-2.94-.02-1.62-1.59-2.72-2.86-2.94-1.94-.33-3.7,1.28-4.29,2.94-.1.27-.52,1.55,0,2.94.81,2.15,3.42,3.37,5.73,2.94,3.24-.61,4.23-4.15,4.29-4.41.04-.15.86-3.54-1.43-5.88-2.05-2.09-4.88-1.61-5.73-1.47-.41.07-4.18.77-5.73,4.41-1.18,2.78-.21,5.36,0,5.88"/>
</svg>